<svg xmlns="http://www.w3.org/2000/svg" width="72" height="72" viewBox="0 0 85.04 85.04">
  <path fill-rule="evenodd" d="M42.52,10.79A11.58,11.58,0,1,1,30.94,22.37,11.59,11.59,0,0,1,42.52,10.79m0-5A16.58,16.58,0,1,0,59.1,22.37,16.58,16.58,0,0,0,42.52,5.79Z"></path>
  <path fill-rule="evenodd" d="M57.13,48.86C64.42,53.8,70,63.8,71.37,74.25H13.67c1.39-10.45,7-20.45,14.24-25.39a32.83,32.83,0,0,0,29.22,0m.07-5.75a27.87,27.87,0,0,1-29.36,0C16.3,49,8.33,64.62,8.33,79.25H76.71c0-14.63-8-30.25-19.51-36.14Z"></path>
</svg>